<?xml version="1.0" encoding="utf-8"?>
<!-- Generator: Adobe Illustrator 16.0.4, SVG Export Plug-In . SVG Version: 6.00 Build 0)  -->
<!DOCTYPE svg PUBLIC "-//W3C//DTD SVG 1.1//EN" "http://www.w3.org/Graphics/SVG/1.1/DTD/svg11.dtd">
<svg version="1.1" id="Layer_1" xmlns="http://www.w3.org/2000/svg" xmlns:xlink="http://www.w3.org/1999/xlink" x="0px" y="0px"
	 width="987.811px" height="103.869px" viewBox="0 0 987.811 103.869" enable-background="new 0 0 987.811 103.869"
	 xml:space="preserve">
<rect x="178.168" y="26.472" fill="#FFFFFF" width="11.757" height="50.924"/>
<g>
	<path fill="#FFFFFF" d="M352.402,38.918c-3.817-3.436-7.099-3.665-8.55-3.665c-1.605,0-3.59,0.229-4.964,1.755
		c-0.763,0.765-1.297,1.91-1.297,3.206c0,1.222,0.382,2.139,1.145,2.827c1.222,1.146,2.977,1.603,6.414,2.899l3.817,1.452
		c2.215,0.839,4.963,1.984,6.949,3.893c2.977,2.825,3.74,6.49,3.74,9.468c0,5.268-1.832,9.85-4.505,12.598
		c-4.503,4.732-11.07,5.19-14.429,5.19c-3.665,0-6.871-0.534-10.077-2.139c-2.597-1.297-5.574-3.664-7.483-5.573l6.108-8.397
		c1.297,1.299,3.36,3.053,4.733,3.894c1.986,1.222,4.046,1.833,6.414,1.833c1.527,0,3.665-0.307,5.345-1.756
		c0.992-0.841,1.832-2.214,1.832-4.124c0-1.68-0.687-2.748-1.755-3.665c-1.374-1.146-4.504-2.289-5.956-2.825l-4.199-1.448
		c-2.367-0.841-5.116-1.91-7.101-4.046c-2.671-2.826-3.053-6.414-3.053-8.857c0-4.504,1.374-8.321,4.428-11.453
		c3.588-3.664,7.863-4.657,12.596-4.657c3.513,0,9.163,0.611,15.118,5.041L352.402,38.918z"/>
	<path fill="#FFFFFF" d="M496.711,26.472c6.489,0,10.536,2.139,12.979,4.429c2.137,2.061,4.428,5.727,4.428,11.376
		c0,3.205-0.687,7.175-3.97,10.383c-1.757,1.68-4.275,3.205-7.101,3.894l15.65,20.843h-14.352l-13.744-20.08v20.08h-11.757V26.472
		H496.711z M490.602,49.605h2.674c2.137,0,5.039-0.23,7.023-2.214c0.84-0.841,1.909-2.443,1.909-4.962
		c0-2.901-1.375-4.429-2.365-5.191c-1.911-1.452-4.964-1.605-6.49-1.605h-2.75L490.602,49.605L490.602,49.605z"/>
	<path fill="#FFFFFF" d="M677.665,56.629c0,4.886-0.611,10.919-5.65,16.109c-4.887,5.039-10.537,5.803-15.881,5.803
		c-5.345,0-10.994-0.764-15.88-5.803c-5.039-5.191-5.649-11.224-5.649-16.109V26.472h11.758v29.852c0,2.216,0.152,5.954,2.672,8.551
		c2.061,2.214,4.885,2.673,7.1,2.673c2.214,0,5.039-0.459,7.101-2.673c2.52-2.597,2.673-6.336,2.673-8.551V26.472h11.758V56.629z"/>
	<path fill="#FFFFFF" d="M813.306,26.472c4.429,0,9.314,0.611,13.361,4.2c4.352,3.816,4.963,8.856,4.963,12.369
		c0,6.411-2.441,9.999-4.352,11.985c-4.046,4.121-9.391,4.504-12.978,4.504h-7.179v17.866h-11.758V26.472H813.306z M807.122,49.912
		h4.198c1.604,0,4.429-0.076,6.34-1.91c1.067-1.068,1.907-2.825,1.907-5.039c0-2.139-0.763-3.896-1.907-4.963
		c-1.758-1.68-4.276-1.908-6.567-1.908h-3.97L807.122,49.912L807.122,49.912z"/>
	<polygon fill="#FFFFFF" points="976.739,36.397 976.739,77.396 964.982,77.396 964.982,36.397 953.912,36.397 953.912,26.472 
		987.811,26.472 987.811,36.397 	"/>
	<rect x="9.848" y="67.472" fill="#FFFFFF" width="5.878" height="9.925"/>
	<path fill="#FFFFFF" d="M53.359,52.072c0.001-0.11,0.006-0.217,0.006-0.329c0-7.939-2.825-13.894-7.329-18.247
		c-6.261-6.031-13.361-7.024-20.08-7.024H9.849v17.302H0.001v1.06h21.605v-0.53v-0.53v-7.376h3.13c3.589,0,8.551,0.535,12.368,4.352
		c1.96,1.96,4.134,5.417,4.188,10.792h-9.687v1.06h5.838c-0.13,2.789-0.876,5.234-2,7.239h4.066
		c-0.859,1.75-1.955,3.184-3.169,4.196c-3.816,3.204-9.16,3.435-11.604,3.435h-2.083h-1.047v9.925h4.733
		c4.276,0,13.056-0.535,20.079-7.635c2.63-2.629,4.689-5.889,5.862-9.921h-2.272c0.77-2.32,1.199-4.903,1.231-7.769H53.359z"/>
</g>
</svg>
