<?xml version="1.0" encoding="utf-8"?>
<!-- Generator: Adobe Illustrator 16.0.4, SVG Export Plug-In . SVG Version: 6.00 Build 0)  -->
<!DOCTYPE svg PUBLIC "-//W3C//DTD SVG 1.1//EN" "http://www.w3.org/Graphics/SVG/1.1/DTD/svg11.dtd">
<svg version="1.1" id="Layer_1" xmlns="http://www.w3.org/2000/svg" xmlns:xlink="http://www.w3.org/1999/xlink" x="0px" y="0px"
	 width="987.811px" height="103.869px" viewBox="0 0 987.811 103.869" enable-background="new 0 0 987.811 103.869"
	 xml:space="preserve">
<rect x="196.12" y="27.92" fill="#FFFFFF" width="11.089" height="48.029"/>
<g>
	<path fill="#FFFFFF" d="M360.448,39.658c-3.6-3.24-6.696-3.457-8.064-3.457c-1.513,0-3.385,0.217-4.681,1.656
		c-0.72,0.721-1.224,1.801-1.224,3.024c0,1.152,0.36,2.017,1.08,2.666c1.152,1.08,2.808,1.511,6.049,2.734l3.6,1.369
		c2.088,0.791,4.68,1.871,6.553,3.672c2.808,2.664,3.528,6.121,3.528,8.93c0,4.968-1.728,9.289-4.249,11.881
		c-4.248,4.464-10.441,4.896-13.609,4.896c-3.456,0-6.48-0.504-9.504-2.018c-2.449-1.223-5.257-3.456-7.057-5.256l5.76-7.92
		c1.224,1.224,3.169,2.879,4.464,3.672c1.873,1.152,3.817,1.729,6.049,1.729c1.44,0,3.456-0.289,5.041-1.656
		c0.936-0.793,1.728-2.088,1.728-3.889c0-1.584-0.648-2.593-1.656-3.457c-1.296-1.08-4.248-2.16-5.617-2.664l-3.96-1.367
		c-2.232-0.793-4.825-1.801-6.697-3.816c-2.52-2.665-2.88-6.049-2.88-8.354c0-4.248,1.296-7.848,4.177-10.801
		c3.384-3.455,7.416-4.392,11.88-4.392c3.313,0,8.641,0.576,14.258,4.754L360.448,39.658z"/>
	<path fill="#FFFFFF" d="M496.552,27.92c6.12,0,9.937,2.017,12.241,4.177c2.016,1.944,4.176,5.401,4.176,10.729
		c0,3.023-0.647,6.767-3.744,9.793c-1.656,1.584-4.032,3.022-6.696,3.672l14.761,19.658h-13.537l-12.961-18.938v18.938h-11.089
		V27.92H496.552z M490.791,49.738h2.521c2.016,0,4.752-0.217,6.624-2.088c0.792-0.793,1.801-2.305,1.801-4.68
		c0-2.736-1.297-4.177-2.232-4.896c-1.801-1.369-4.681-1.514-6.121-1.514h-2.592V49.738z"/>
	<path fill="#FFFFFF" d="M667.217,56.363c0,4.606-0.576,10.297-5.329,15.192c-4.608,4.752-9.937,5.474-14.977,5.474
		c-5.041,0-10.369-0.722-14.978-5.474c-4.752-4.896-5.328-10.586-5.328-15.192V27.92h11.09v28.154c0,2.09,0.143,5.617,2.519,8.065
		c1.944,2.089,4.608,2.521,6.697,2.521c2.088,0,4.752-0.432,6.696-2.521c2.377-2.448,2.521-5.976,2.521-8.065V27.92h11.089V56.363z"
		/>
	<path fill="#FFFFFF" d="M795.146,27.92c4.177,0,8.785,0.576,12.602,3.961c4.104,3.599,4.68,8.353,4.68,11.666
		c0,6.046-2.303,9.431-4.104,11.304c-3.816,3.887-8.857,4.248-12.24,4.248h-6.77v16.85h-11.089V27.92H795.146z M789.314,50.027h3.96
		c1.513,0,4.177-0.072,5.978-1.801c1.007-1.008,1.799-2.664,1.799-4.752c0-2.017-0.719-3.674-1.799-4.681
		c-1.657-1.584-4.033-1.799-6.193-1.799h-3.744V50.027z"/>
	<polygon fill="#FFFFFF" points="949.287,37.281 949.287,75.949 938.198,75.949 938.198,37.281 927.758,37.281 927.758,27.92 
		959.729,27.92 959.729,37.281 	"/>
	<rect x="37.37" y="66.588" fill="#FFFFFF" width="5.544" height="9.361"/>
	<path fill="#FFFFFF" d="M78.407,52.064c0.001-0.104,0.006-0.205,0.006-0.31c0-7.488-2.664-13.104-6.912-17.209
		C65.596,28.857,58.9,27.92,52.563,27.92H37.371v16.318h-9.288v1h20.377v-0.5v-0.5v-6.957h2.952c3.385,0,8.065,0.504,11.665,4.104
		c1.849,1.849,3.899,5.109,3.951,10.179h-9.136v1h5.506c-0.123,2.631-0.826,4.936-1.887,6.828h3.835
		c-0.811,1.65-1.844,3.002-2.989,3.956c-3.6,3.023-8.64,3.24-10.945,3.24h-1.964h-0.988v9.361h4.464
		c4.033,0,12.314-0.505,18.938-7.201c2.48-2.479,4.422-5.553,5.528-9.356h-2.143c0.726-2.189,1.131-4.626,1.161-7.328H78.407z"/>
</g>
</svg>
